<mxfile host="app.diagrams.net" modified="2023-04-11T15:27:31.732Z" agent="Mozilla/5.0 (Windows NT 10.0; Win64; x64) AppleWebKit/537.36 (KHTML, like Gecko) Chrome/97.0.4692.71 Safari/537.36" etag="Yex1WZsGMQH-uPw_cY01" version="21.1.5" type="github" pages="5">
  <diagram name="第 1 页" id="SLEqpYw7U0LP6DK6O7yW">
    <mxGraphModel dx="1050" dy="625" grid="0" gridSize="10" guides="1" tooltips="1" connect="1" arrows="1" fold="1" page="1" pageScale="1" pageWidth="2336" pageHeight="1654" math="0" shadow="0">
      <root>
        <mxCell id="0" />
        <mxCell id="1" parent="0" />
        <mxCell id="4Lx_ZeenvQGBmpjhmqKd-1" value="" style="rounded=1;whiteSpace=wrap;html=1;fillColor=#f5f5f5;fontColor=#333333;strokeColor=#666666;" parent="1" vertex="1">
          <mxGeometry x="160" y="70" width="410" height="80" as="geometry" />
        </mxCell>
        <mxCell id="4Lx_ZeenvQGBmpjhmqKd-2" value="&lt;font style=&quot;font-size: 16px;&quot; face=&quot;Comic Sans MS&quot;&gt;App&lt;/font&gt;" style="rounded=1;whiteSpace=wrap;html=1;fillColor=none;strokeColor=none;" parent="1" vertex="1">
          <mxGeometry x="260" y="20" width="120" height="60" as="geometry" />
        </mxCell>
        <mxCell id="4Lx_ZeenvQGBmpjhmqKd-9" style="edgeStyle=orthogonalEdgeStyle;rounded=0;orthogonalLoop=1;jettySize=auto;html=1;exitX=0.5;exitY=1;exitDx=0;exitDy=0;" parent="1" source="4Lx_ZeenvQGBmpjhmqKd-3" target="4Lx_ZeenvQGBmpjhmqKd-4" edge="1">
          <mxGeometry relative="1" as="geometry" />
        </mxCell>
        <mxCell id="4Lx_ZeenvQGBmpjhmqKd-3" value="&lt;font style=&quot;font-size: 16px;&quot;&gt;TextView.setText&lt;/font&gt;" style="rounded=1;whiteSpace=wrap;html=1;fillColor=#dae8fc;strokeColor=#6c8ebf;fontFamily=Comic Sans MS;" parent="1" vertex="1">
          <mxGeometry x="170" y="80" width="140" height="60" as="geometry" />
        </mxCell>
        <mxCell id="4Lx_ZeenvQGBmpjhmqKd-15" style="edgeStyle=orthogonalEdgeStyle;rounded=0;orthogonalLoop=1;jettySize=auto;html=1;exitX=1;exitY=0.5;exitDx=0;exitDy=0;entryX=0;entryY=0.5;entryDx=0;entryDy=0;" parent="1" source="4Lx_ZeenvQGBmpjhmqKd-4" target="4Lx_ZeenvQGBmpjhmqKd-10" edge="1">
          <mxGeometry relative="1" as="geometry" />
        </mxCell>
        <mxCell id="4Lx_ZeenvQGBmpjhmqKd-4" value="" style="rounded=1;whiteSpace=wrap;html=1;fillColor=#d5e8d4;strokeColor=#82b366;" parent="1" vertex="1">
          <mxGeometry x="160" y="190" width="160" height="280" as="geometry" />
        </mxCell>
        <mxCell id="4Lx_ZeenvQGBmpjhmqKd-5" value="&lt;font style=&quot;font-size: 16px;&quot;&gt;invalide&lt;/font&gt;" style="rounded=1;whiteSpace=wrap;html=1;fontFamily=Comic Sans MS;fillColor=#ffe6cc;strokeColor=#d79b00;" parent="1" vertex="1">
          <mxGeometry x="180" y="300" width="120" height="60" as="geometry" />
        </mxCell>
        <mxCell id="4Lx_ZeenvQGBmpjhmqKd-6" value="&lt;font style=&quot;font-size: 16px;&quot; face=&quot;Comic Sans MS&quot;&gt;TextView&lt;/font&gt;" style="rounded=1;whiteSpace=wrap;html=1;fillColor=none;strokeColor=none;" parent="1" vertex="1">
          <mxGeometry x="180" y="180" width="120" height="60" as="geometry" />
        </mxCell>
        <mxCell id="4Lx_ZeenvQGBmpjhmqKd-20" style="edgeStyle=orthogonalEdgeStyle;rounded=0;orthogonalLoop=1;jettySize=auto;html=1;exitX=1;exitY=0.25;exitDx=0;exitDy=0;entryX=0;entryY=0.25;entryDx=0;entryDy=0;" parent="1" source="4Lx_ZeenvQGBmpjhmqKd-10" target="4Lx_ZeenvQGBmpjhmqKd-19" edge="1">
          <mxGeometry relative="1" as="geometry" />
        </mxCell>
        <mxCell id="4Lx_ZeenvQGBmpjhmqKd-10" value="" style="rounded=1;whiteSpace=wrap;html=1;fillColor=#fff2cc;strokeColor=#d6b656;" parent="1" vertex="1">
          <mxGeometry x="380" y="190" width="190" height="280" as="geometry" />
        </mxCell>
        <mxCell id="4Lx_ZeenvQGBmpjhmqKd-11" value="&lt;font style=&quot;font-size: 16px;&quot; face=&quot;Comic Sans MS&quot;&gt;ViewRootImpl&lt;/font&gt;" style="rounded=1;whiteSpace=wrap;html=1;fillColor=none;strokeColor=none;" parent="1" vertex="1">
          <mxGeometry x="420" y="180" width="120" height="60" as="geometry" />
        </mxCell>
        <mxCell id="4Lx_ZeenvQGBmpjhmqKd-13" value="&lt;div style=&quot;text-align: left;&quot;&gt;&lt;span style=&quot;font-size: 16px; font-family: &amp;quot;Comic Sans MS&amp;quot;; background-color: initial;&quot;&gt;3.scheduleTraversal&lt;/span&gt;&lt;/div&gt;&lt;font face=&quot;Comic Sans MS&quot; style=&quot;font-size: 16px;&quot;&gt;&lt;div style=&quot;text-align: left;&quot;&gt;&lt;span style=&quot;background-color: initial;&quot;&gt;准备重绘，插入同步屏障&lt;/span&gt;&lt;/div&gt;&lt;/font&gt;" style="rounded=1;whiteSpace=wrap;html=1;fillColor=#f8cecc;strokeColor=#b85450;" parent="1" vertex="1">
          <mxGeometry x="390" y="230" width="170" height="90" as="geometry" />
        </mxCell>
        <mxCell id="4Lx_ZeenvQGBmpjhmqKd-14" value="&lt;div style=&quot;text-align: left;&quot;&gt;&lt;font face=&quot;Comic Sans MS&quot;&gt;&lt;span style=&quot;font-size: 16px;&quot;&gt;5.收到消息，删除同步屏障，重绘UI&lt;/span&gt;&lt;/font&gt;&lt;/div&gt;" style="rounded=1;whiteSpace=wrap;html=1;fillColor=#f8cecc;strokeColor=#b85450;" parent="1" vertex="1">
          <mxGeometry x="390" y="350" width="170" height="90" as="geometry" />
        </mxCell>
        <mxCell id="4Lx_ZeenvQGBmpjhmqKd-16" value="&lt;font style=&quot;font-size: 16px;&quot; face=&quot;Comic Sans MS&quot;&gt;2递归&lt;br&gt;invalide&lt;br&gt;&lt;/font&gt;" style="rounded=1;whiteSpace=wrap;html=1;fillColor=none;strokeColor=none;" parent="1" vertex="1">
          <mxGeometry x="290" y="270" width="120" height="60" as="geometry" />
        </mxCell>
        <mxCell id="4Lx_ZeenvQGBmpjhmqKd-17" value="&lt;font style=&quot;font-size: 16px;&quot; face=&quot;Comic Sans MS&quot;&gt;1invalide申请重绘&lt;br&gt;&lt;/font&gt;" style="rounded=1;whiteSpace=wrap;html=1;fillColor=none;strokeColor=none;" parent="1" vertex="1">
          <mxGeometry x="240" y="140" width="150" height="60" as="geometry" />
        </mxCell>
        <mxCell id="4Lx_ZeenvQGBmpjhmqKd-18" value="&lt;font face=&quot;Comic Sans MS&quot; style=&quot;font-size: 16px;&quot;&gt;VSYNC同步信号服务&lt;/font&gt;" style="rounded=1;whiteSpace=wrap;html=1;fillColor=#e1d5e7;strokeColor=#9673a6;" parent="1" vertex="1">
          <mxGeometry x="650" y="70" width="240" height="80" as="geometry" />
        </mxCell>
        <mxCell id="4Lx_ZeenvQGBmpjhmqKd-21" style="edgeStyle=orthogonalEdgeStyle;rounded=0;orthogonalLoop=1;jettySize=auto;html=1;exitX=0;exitY=0.75;exitDx=0;exitDy=0;entryX=1;entryY=0.75;entryDx=0;entryDy=0;" parent="1" source="4Lx_ZeenvQGBmpjhmqKd-19" target="4Lx_ZeenvQGBmpjhmqKd-10" edge="1">
          <mxGeometry relative="1" as="geometry" />
        </mxCell>
        <mxCell id="4Lx_ZeenvQGBmpjhmqKd-19" value="&lt;font face=&quot;Comic Sans MS&quot; style=&quot;font-size: 16px;&quot;&gt;VSYNC同步信号发生及派发服务&lt;/font&gt;" style="rounded=1;whiteSpace=wrap;html=1;fillColor=#e1d5e7;strokeColor=#9673a6;" parent="1" vertex="1">
          <mxGeometry x="650" y="190" width="240" height="280" as="geometry" />
        </mxCell>
        <mxCell id="4Lx_ZeenvQGBmpjhmqKd-22" value="&lt;font style=&quot;font-size: 16px;&quot; face=&quot;Comic Sans MS&quot;&gt;4请求&lt;br&gt;VSYNC信号&lt;br&gt;&lt;/font&gt;" style="rounded=1;whiteSpace=wrap;html=1;fillColor=none;strokeColor=none;" parent="1" vertex="1">
          <mxGeometry x="550" y="200" width="120" height="60" as="geometry" />
        </mxCell>
        <mxCell id="4Lx_ZeenvQGBmpjhmqKd-23" value="&lt;font style=&quot;font-size: 16px;&quot; face=&quot;Comic Sans MS&quot;&gt;5返回&lt;br&gt;VSYNC信号&lt;br&gt;&lt;/font&gt;" style="rounded=1;whiteSpace=wrap;html=1;fillColor=none;strokeColor=none;" parent="1" vertex="1">
          <mxGeometry x="550" y="350" width="120" height="60" as="geometry" />
        </mxCell>
      </root>
    </mxGraphModel>
  </diagram>
  <diagram id="ZNkxJOoggKCvHXbbGsmj" name="第 2 页">
    <mxGraphModel dx="1050" dy="625" grid="0" gridSize="10" guides="1" tooltips="1" connect="1" arrows="1" fold="1" page="1" pageScale="1" pageWidth="2336" pageHeight="1654" math="0" shadow="0">
      <root>
        <mxCell id="0" />
        <mxCell id="1" parent="0" />
        <mxCell id="2hKIlIAP9yPb1j6a9elx-1" value="&lt;div style=&quot;text-align: left; font-size: 16px;&quot;&gt;&lt;br&gt;&lt;/div&gt;" style="rounded=1;whiteSpace=wrap;html=1;fillColor=#f5f5f5;fontColor=#333333;strokeColor=#666666;" parent="1" vertex="1">
          <mxGeometry x="390" y="100" width="120" height="80" as="geometry" />
        </mxCell>
        <mxCell id="gu4P5djcY4uK2mAo96ia-1" value="&lt;font style=&quot;font-size: 16px;&quot;&gt;WindowContainer&lt;/font&gt;" style="rounded=1;whiteSpace=wrap;html=1;fillColor=none;strokeColor=none;" parent="1" vertex="1">
          <mxGeometry x="400" y="50" width="120" height="60" as="geometry" />
        </mxCell>
        <mxCell id="gu4P5djcY4uK2mAo96ia-24" value="&lt;font style=&quot;font-size: 16px;&quot;&gt;mParent&lt;/font&gt;" style="rounded=1;whiteSpace=wrap;html=1;fillColor=none;strokeColor=none;align=left;" parent="1" vertex="1">
          <mxGeometry x="410" y="100" width="120" height="60" as="geometry" />
        </mxCell>
        <mxCell id="gu4P5djcY4uK2mAo96ia-58" style="edgeStyle=orthogonalEdgeStyle;rounded=0;orthogonalLoop=1;jettySize=auto;html=1;exitX=0;exitY=0.5;exitDx=0;exitDy=0;" parent="1" source="gu4P5djcY4uK2mAo96ia-25" target="gu4P5djcY4uK2mAo96ia-27" edge="1">
          <mxGeometry relative="1" as="geometry" />
        </mxCell>
        <mxCell id="gu4P5djcY4uK2mAo96ia-60" style="edgeStyle=orthogonalEdgeStyle;rounded=0;orthogonalLoop=1;jettySize=auto;html=1;exitX=0;exitY=0.5;exitDx=0;exitDy=0;fontColor=#FF3333;strokeColor=#FF3333;" parent="1" source="gu4P5djcY4uK2mAo96ia-25" target="gu4P5djcY4uK2mAo96ia-35" edge="1">
          <mxGeometry relative="1" as="geometry">
            <Array as="points">
              <mxPoint x="380" y="160" />
              <mxPoint x="380" y="190" />
              <mxPoint x="720" y="190" />
            </Array>
          </mxGeometry>
        </mxCell>
        <mxCell id="gu4P5djcY4uK2mAo96ia-74" style="edgeStyle=orthogonalEdgeStyle;rounded=0;orthogonalLoop=1;jettySize=auto;html=1;exitX=0;exitY=0.5;exitDx=0;exitDy=0;entryX=0.5;entryY=0;entryDx=0;entryDy=0;strokeColor=#FF3333;" parent="1" source="gu4P5djcY4uK2mAo96ia-25" target="gu4P5djcY4uK2mAo96ia-31" edge="1">
          <mxGeometry relative="1" as="geometry">
            <Array as="points">
              <mxPoint x="350" y="160" />
              <mxPoint x="350" y="200" />
              <mxPoint x="460" y="200" />
            </Array>
          </mxGeometry>
        </mxCell>
        <mxCell id="gu4P5djcY4uK2mAo96ia-25" value="&lt;font style=&quot;font-size: 16px;&quot;&gt;mChildren&lt;/font&gt;" style="rounded=1;whiteSpace=wrap;html=1;fillColor=none;strokeColor=none;align=left;" parent="1" vertex="1">
          <mxGeometry x="410" y="130" width="120" height="60" as="geometry" />
        </mxCell>
        <mxCell id="gu4P5djcY4uK2mAo96ia-26" value="&lt;div style=&quot;text-align: left; font-size: 16px;&quot;&gt;&lt;br&gt;&lt;/div&gt;" style="rounded=1;whiteSpace=wrap;html=1;fillColor=#dae8fc;strokeColor=#6c8ebf;" parent="1" vertex="1">
          <mxGeometry x="140" y="260" width="120" height="80" as="geometry" />
        </mxCell>
        <mxCell id="gu4P5djcY4uK2mAo96ia-27" value="&lt;font style=&quot;font-size: 16px;&quot;&gt;WindowContainer&lt;/font&gt;" style="rounded=1;whiteSpace=wrap;html=1;fillColor=none;strokeColor=none;" parent="1" vertex="1">
          <mxGeometry x="150" y="210" width="120" height="60" as="geometry" />
        </mxCell>
        <mxCell id="gu4P5djcY4uK2mAo96ia-62" style="edgeStyle=orthogonalEdgeStyle;rounded=0;orthogonalLoop=1;jettySize=auto;html=1;exitX=0;exitY=0.5;exitDx=0;exitDy=0;entryX=0;entryY=0.5;entryDx=0;entryDy=0;" parent="1" source="gu4P5djcY4uK2mAo96ia-28" target="gu4P5djcY4uK2mAo96ia-1" edge="1">
          <mxGeometry relative="1" as="geometry">
            <Array as="points">
              <mxPoint x="120" y="290" />
              <mxPoint x="120" y="80" />
            </Array>
          </mxGeometry>
        </mxCell>
        <mxCell id="gu4P5djcY4uK2mAo96ia-28" value="&lt;font style=&quot;font-size: 16px;&quot;&gt;mParent&lt;/font&gt;" style="rounded=1;whiteSpace=wrap;html=1;fillColor=none;strokeColor=none;align=left;" parent="1" vertex="1">
          <mxGeometry x="160" y="260" width="120" height="60" as="geometry" />
        </mxCell>
        <mxCell id="gu4P5djcY4uK2mAo96ia-65" style="edgeStyle=orthogonalEdgeStyle;rounded=0;orthogonalLoop=1;jettySize=auto;html=1;exitX=0;exitY=0.5;exitDx=0;exitDy=0;strokeColor=#FF3333;" parent="1" source="gu4P5djcY4uK2mAo96ia-29" target="gu4P5djcY4uK2mAo96ia-39" edge="1">
          <mxGeometry relative="1" as="geometry" />
        </mxCell>
        <mxCell id="gu4P5djcY4uK2mAo96ia-66" style="edgeStyle=orthogonalEdgeStyle;rounded=0;orthogonalLoop=1;jettySize=auto;html=1;exitX=0;exitY=0.5;exitDx=0;exitDy=0;strokeColor=#FF3333;" parent="1" source="gu4P5djcY4uK2mAo96ia-29" target="gu4P5djcY4uK2mAo96ia-43" edge="1">
          <mxGeometry relative="1" as="geometry">
            <Array as="points">
              <mxPoint x="130" y="320" />
              <mxPoint x="130" y="360" />
              <mxPoint x="260" y="360" />
            </Array>
          </mxGeometry>
        </mxCell>
        <mxCell id="gu4P5djcY4uK2mAo96ia-29" value="&lt;font style=&quot;font-size: 16px;&quot;&gt;mChildren&lt;/font&gt;" style="rounded=1;whiteSpace=wrap;html=1;fillColor=none;strokeColor=none;align=left;" parent="1" vertex="1">
          <mxGeometry x="160" y="290" width="120" height="60" as="geometry" />
        </mxCell>
        <mxCell id="gu4P5djcY4uK2mAo96ia-30" value="&lt;div style=&quot;text-align: left; font-size: 16px;&quot;&gt;&lt;br&gt;&lt;/div&gt;" style="rounded=1;whiteSpace=wrap;html=1;fillColor=#dae8fc;strokeColor=#6c8ebf;" parent="1" vertex="1">
          <mxGeometry x="390" y="260" width="120" height="80" as="geometry" />
        </mxCell>
        <mxCell id="gu4P5djcY4uK2mAo96ia-31" value="&lt;font style=&quot;font-size: 16px;&quot;&gt;WindowContainer&lt;/font&gt;" style="rounded=1;whiteSpace=wrap;html=1;fillColor=none;strokeColor=none;" parent="1" vertex="1">
          <mxGeometry x="400" y="210" width="120" height="60" as="geometry" />
        </mxCell>
        <mxCell id="gu4P5djcY4uK2mAo96ia-63" style="edgeStyle=orthogonalEdgeStyle;rounded=0;orthogonalLoop=1;jettySize=auto;html=1;exitX=0;exitY=0.5;exitDx=0;exitDy=0;entryX=0;entryY=0.5;entryDx=0;entryDy=0;" parent="1" source="gu4P5djcY4uK2mAo96ia-32" target="gu4P5djcY4uK2mAo96ia-1" edge="1">
          <mxGeometry relative="1" as="geometry">
            <Array as="points">
              <mxPoint x="330" y="290" />
              <mxPoint x="330" y="80" />
            </Array>
          </mxGeometry>
        </mxCell>
        <mxCell id="gu4P5djcY4uK2mAo96ia-32" value="&lt;font style=&quot;font-size: 16px;&quot;&gt;mParent&lt;/font&gt;" style="rounded=1;whiteSpace=wrap;html=1;fillColor=none;strokeColor=none;align=left;" parent="1" vertex="1">
          <mxGeometry x="410" y="260" width="120" height="60" as="geometry" />
        </mxCell>
        <mxCell id="gu4P5djcY4uK2mAo96ia-68" style="edgeStyle=orthogonalEdgeStyle;rounded=0;orthogonalLoop=1;jettySize=auto;html=1;exitX=0;exitY=0.5;exitDx=0;exitDy=0;strokeColor=#FF3333;" parent="1" source="gu4P5djcY4uK2mAo96ia-33" target="gu4P5djcY4uK2mAo96ia-47" edge="1">
          <mxGeometry relative="1" as="geometry">
            <Array as="points">
              <mxPoint x="360" y="320" />
              <mxPoint x="360" y="360" />
              <mxPoint x="460" y="360" />
            </Array>
          </mxGeometry>
        </mxCell>
        <mxCell id="gu4P5djcY4uK2mAo96ia-33" value="&lt;font style=&quot;font-size: 16px;&quot;&gt;mChildren&lt;/font&gt;" style="rounded=1;whiteSpace=wrap;html=1;fillColor=none;strokeColor=none;align=left;" parent="1" vertex="1">
          <mxGeometry x="410" y="290" width="120" height="60" as="geometry" />
        </mxCell>
        <mxCell id="gu4P5djcY4uK2mAo96ia-34" value="&lt;div style=&quot;text-align: left; font-size: 16px;&quot;&gt;&lt;br&gt;&lt;/div&gt;" style="rounded=1;whiteSpace=wrap;html=1;fillColor=#dae8fc;strokeColor=#6c8ebf;" parent="1" vertex="1">
          <mxGeometry x="650" y="260" width="120" height="80" as="geometry" />
        </mxCell>
        <mxCell id="gu4P5djcY4uK2mAo96ia-35" value="&lt;font style=&quot;font-size: 16px;&quot;&gt;WindowContainer&lt;/font&gt;" style="rounded=1;whiteSpace=wrap;html=1;fillColor=none;strokeColor=none;" parent="1" vertex="1">
          <mxGeometry x="660" y="210" width="120" height="60" as="geometry" />
        </mxCell>
        <mxCell id="gu4P5djcY4uK2mAo96ia-64" style="edgeStyle=orthogonalEdgeStyle;rounded=0;orthogonalLoop=1;jettySize=auto;html=1;exitX=0;exitY=0.5;exitDx=0;exitDy=0;entryX=1;entryY=0.5;entryDx=0;entryDy=0;" parent="1" source="gu4P5djcY4uK2mAo96ia-36" target="gu4P5djcY4uK2mAo96ia-1" edge="1">
          <mxGeometry relative="1" as="geometry" />
        </mxCell>
        <mxCell id="gu4P5djcY4uK2mAo96ia-36" value="&lt;font style=&quot;font-size: 16px;&quot;&gt;mParent&lt;/font&gt;" style="rounded=1;whiteSpace=wrap;html=1;fillColor=none;strokeColor=none;align=left;" parent="1" vertex="1">
          <mxGeometry x="670" y="260" width="120" height="60" as="geometry" />
        </mxCell>
        <mxCell id="gu4P5djcY4uK2mAo96ia-69" style="edgeStyle=orthogonalEdgeStyle;rounded=0;orthogonalLoop=1;jettySize=auto;html=1;exitX=0;exitY=0.5;exitDx=0;exitDy=0;strokeColor=#FF3333;" parent="1" source="gu4P5djcY4uK2mAo96ia-37" target="gu4P5djcY4uK2mAo96ia-51" edge="1">
          <mxGeometry relative="1" as="geometry">
            <Array as="points">
              <mxPoint x="620" y="320" />
            </Array>
          </mxGeometry>
        </mxCell>
        <mxCell id="gu4P5djcY4uK2mAo96ia-70" style="edgeStyle=orthogonalEdgeStyle;rounded=0;orthogonalLoop=1;jettySize=auto;html=1;exitX=0;exitY=0.5;exitDx=0;exitDy=0;strokeColor=#FF3333;" parent="1" source="gu4P5djcY4uK2mAo96ia-37" target="gu4P5djcY4uK2mAo96ia-55" edge="1">
          <mxGeometry relative="1" as="geometry">
            <Array as="points">
              <mxPoint x="640" y="320" />
              <mxPoint x="640" y="360" />
              <mxPoint x="800" y="360" />
            </Array>
          </mxGeometry>
        </mxCell>
        <mxCell id="gu4P5djcY4uK2mAo96ia-37" value="&lt;font style=&quot;font-size: 16px;&quot;&gt;mChildren&lt;/font&gt;" style="rounded=1;whiteSpace=wrap;html=1;fillColor=none;strokeColor=none;align=left;" parent="1" vertex="1">
          <mxGeometry x="670" y="290" width="120" height="60" as="geometry" />
        </mxCell>
        <mxCell id="gu4P5djcY4uK2mAo96ia-38" value="&lt;div style=&quot;text-align: left; font-size: 16px;&quot;&gt;&lt;br&gt;&lt;/div&gt;" style="rounded=1;whiteSpace=wrap;html=1;fillColor=#d5e8d4;strokeColor=#82b366;" parent="1" vertex="1">
          <mxGeometry x="20" y="430" width="120" height="80" as="geometry" />
        </mxCell>
        <mxCell id="gu4P5djcY4uK2mAo96ia-39" value="&lt;font style=&quot;font-size: 16px;&quot;&gt;WindowContainer&lt;/font&gt;" style="rounded=1;whiteSpace=wrap;html=1;fillColor=none;strokeColor=none;" parent="1" vertex="1">
          <mxGeometry x="30" y="380" width="120" height="60" as="geometry" />
        </mxCell>
        <mxCell id="gu4P5djcY4uK2mAo96ia-71" style="edgeStyle=orthogonalEdgeStyle;rounded=0;orthogonalLoop=1;jettySize=auto;html=1;exitX=0;exitY=0.5;exitDx=0;exitDy=0;entryX=0;entryY=0.5;entryDx=0;entryDy=0;" parent="1" source="gu4P5djcY4uK2mAo96ia-40" target="gu4P5djcY4uK2mAo96ia-27" edge="1">
          <mxGeometry relative="1" as="geometry">
            <Array as="points">
              <mxPoint x="10" y="460" />
              <mxPoint x="10" y="240" />
            </Array>
          </mxGeometry>
        </mxCell>
        <mxCell id="gu4P5djcY4uK2mAo96ia-40" value="&lt;font style=&quot;font-size: 16px;&quot;&gt;mParent&lt;/font&gt;" style="rounded=1;whiteSpace=wrap;html=1;fillColor=none;strokeColor=none;align=left;" parent="1" vertex="1">
          <mxGeometry x="40" y="430" width="120" height="60" as="geometry" />
        </mxCell>
        <mxCell id="gu4P5djcY4uK2mAo96ia-41" value="&lt;font style=&quot;font-size: 16px;&quot;&gt;mChildren&lt;/font&gt;" style="rounded=1;whiteSpace=wrap;html=1;fillColor=none;strokeColor=none;align=left;" parent="1" vertex="1">
          <mxGeometry x="40" y="460" width="120" height="60" as="geometry" />
        </mxCell>
        <mxCell id="gu4P5djcY4uK2mAo96ia-42" value="&lt;div style=&quot;text-align: left; font-size: 16px;&quot;&gt;&lt;br&gt;&lt;/div&gt;" style="rounded=1;whiteSpace=wrap;html=1;fillColor=#d5e8d4;strokeColor=#82b366;" parent="1" vertex="1">
          <mxGeometry x="190" y="430" width="120" height="80" as="geometry" />
        </mxCell>
        <mxCell id="gu4P5djcY4uK2mAo96ia-43" value="&lt;font style=&quot;font-size: 16px;&quot;&gt;WindowContainer&lt;/font&gt;" style="rounded=1;whiteSpace=wrap;html=1;fillColor=none;strokeColor=none;" parent="1" vertex="1">
          <mxGeometry x="200" y="380" width="120" height="60" as="geometry" />
        </mxCell>
        <mxCell id="gu4P5djcY4uK2mAo96ia-72" style="edgeStyle=orthogonalEdgeStyle;rounded=0;orthogonalLoop=1;jettySize=auto;html=1;exitX=0;exitY=0.5;exitDx=0;exitDy=0;entryX=1;entryY=0.5;entryDx=0;entryDy=0;" parent="1" source="gu4P5djcY4uK2mAo96ia-44" target="gu4P5djcY4uK2mAo96ia-27" edge="1">
          <mxGeometry relative="1" as="geometry">
            <Array as="points">
              <mxPoint x="170" y="460" />
              <mxPoint x="170" y="350" />
              <mxPoint x="290" y="350" />
              <mxPoint x="290" y="240" />
            </Array>
          </mxGeometry>
        </mxCell>
        <mxCell id="gu4P5djcY4uK2mAo96ia-44" value="&lt;font style=&quot;font-size: 16px;&quot;&gt;mParent&lt;/font&gt;" style="rounded=1;whiteSpace=wrap;html=1;fillColor=none;strokeColor=none;align=left;" parent="1" vertex="1">
          <mxGeometry x="210" y="430" width="120" height="60" as="geometry" />
        </mxCell>
        <mxCell id="gu4P5djcY4uK2mAo96ia-45" value="&lt;font style=&quot;font-size: 16px;&quot;&gt;mChildren&lt;/font&gt;" style="rounded=1;whiteSpace=wrap;html=1;fillColor=none;strokeColor=none;align=left;" parent="1" vertex="1">
          <mxGeometry x="210" y="460" width="120" height="60" as="geometry" />
        </mxCell>
        <mxCell id="gu4P5djcY4uK2mAo96ia-46" value="&lt;div style=&quot;text-align: left; font-size: 16px;&quot;&gt;&lt;br&gt;&lt;/div&gt;" style="rounded=1;whiteSpace=wrap;html=1;fillColor=#d5e8d4;strokeColor=#82b366;" parent="1" vertex="1">
          <mxGeometry x="390" y="430" width="120" height="80" as="geometry" />
        </mxCell>
        <mxCell id="gu4P5djcY4uK2mAo96ia-47" value="&lt;font style=&quot;font-size: 16px;&quot;&gt;WindowContainer&lt;/font&gt;" style="rounded=1;whiteSpace=wrap;html=1;fillColor=none;strokeColor=none;" parent="1" vertex="1">
          <mxGeometry x="400" y="380" width="120" height="60" as="geometry" />
        </mxCell>
        <mxCell id="gu4P5djcY4uK2mAo96ia-48" value="&lt;font style=&quot;font-size: 16px;&quot;&gt;mParent&lt;/font&gt;" style="rounded=1;whiteSpace=wrap;html=1;fillColor=none;strokeColor=none;align=left;" parent="1" vertex="1">
          <mxGeometry x="410" y="430" width="120" height="60" as="geometry" />
        </mxCell>
        <mxCell id="gu4P5djcY4uK2mAo96ia-73" style="edgeStyle=orthogonalEdgeStyle;rounded=0;orthogonalLoop=1;jettySize=auto;html=1;exitX=0;exitY=0;exitDx=0;exitDy=0;entryX=0;entryY=0.5;entryDx=0;entryDy=0;" parent="1" source="gu4P5djcY4uK2mAo96ia-49" target="gu4P5djcY4uK2mAo96ia-31" edge="1">
          <mxGeometry relative="1" as="geometry">
            <Array as="points">
              <mxPoint x="340" y="460" />
              <mxPoint x="340" y="240" />
            </Array>
          </mxGeometry>
        </mxCell>
        <mxCell id="gu4P5djcY4uK2mAo96ia-49" value="&lt;font style=&quot;font-size: 16px;&quot;&gt;mChildren&lt;/font&gt;" style="rounded=1;whiteSpace=wrap;html=1;fillColor=none;strokeColor=none;align=left;" parent="1" vertex="1">
          <mxGeometry x="410" y="460" width="120" height="60" as="geometry" />
        </mxCell>
        <mxCell id="gu4P5djcY4uK2mAo96ia-50" value="&lt;div style=&quot;text-align: left; font-size: 16px;&quot;&gt;&lt;br&gt;&lt;/div&gt;" style="rounded=1;whiteSpace=wrap;html=1;fillColor=#d5e8d4;strokeColor=#82b366;" parent="1" vertex="1">
          <mxGeometry x="570" y="430" width="120" height="80" as="geometry" />
        </mxCell>
        <mxCell id="gu4P5djcY4uK2mAo96ia-51" value="&lt;font style=&quot;font-size: 16px;&quot;&gt;WindowContainer&lt;/font&gt;" style="rounded=1;whiteSpace=wrap;html=1;fillColor=none;strokeColor=none;" parent="1" vertex="1">
          <mxGeometry x="580" y="380" width="120" height="60" as="geometry" />
        </mxCell>
        <mxCell id="gu4P5djcY4uK2mAo96ia-75" style="edgeStyle=orthogonalEdgeStyle;rounded=0;orthogonalLoop=1;jettySize=auto;html=1;exitX=0;exitY=0.5;exitDx=0;exitDy=0;entryX=0;entryY=0.5;entryDx=0;entryDy=0;" parent="1" source="gu4P5djcY4uK2mAo96ia-52" target="gu4P5djcY4uK2mAo96ia-35" edge="1">
          <mxGeometry relative="1" as="geometry">
            <Array as="points">
              <mxPoint x="550" y="460" />
              <mxPoint x="550" y="240" />
            </Array>
          </mxGeometry>
        </mxCell>
        <mxCell id="gu4P5djcY4uK2mAo96ia-52" value="&lt;font style=&quot;font-size: 16px;&quot;&gt;mParent&lt;/font&gt;" style="rounded=1;whiteSpace=wrap;html=1;fillColor=none;strokeColor=none;align=left;" parent="1" vertex="1">
          <mxGeometry x="590" y="430" width="120" height="60" as="geometry" />
        </mxCell>
        <mxCell id="gu4P5djcY4uK2mAo96ia-53" value="&lt;font style=&quot;font-size: 16px;&quot;&gt;mChildren&lt;/font&gt;" style="rounded=1;whiteSpace=wrap;html=1;fillColor=none;strokeColor=none;align=left;" parent="1" vertex="1">
          <mxGeometry x="590" y="460" width="120" height="60" as="geometry" />
        </mxCell>
        <mxCell id="gu4P5djcY4uK2mAo96ia-54" value="&lt;div style=&quot;text-align: left; font-size: 16px;&quot;&gt;&lt;br&gt;&lt;/div&gt;" style="rounded=1;whiteSpace=wrap;html=1;fillColor=#d5e8d4;strokeColor=#82b366;" parent="1" vertex="1">
          <mxGeometry x="730" y="430" width="120" height="80" as="geometry" />
        </mxCell>
        <mxCell id="gu4P5djcY4uK2mAo96ia-55" value="&lt;font style=&quot;font-size: 16px;&quot;&gt;WindowContainer&lt;/font&gt;" style="rounded=1;whiteSpace=wrap;html=1;fillColor=none;strokeColor=none;" parent="1" vertex="1">
          <mxGeometry x="740" y="380" width="120" height="60" as="geometry" />
        </mxCell>
        <mxCell id="gu4P5djcY4uK2mAo96ia-76" style="edgeStyle=orthogonalEdgeStyle;rounded=0;orthogonalLoop=1;jettySize=auto;html=1;exitX=0;exitY=0.5;exitDx=0;exitDy=0;entryX=1;entryY=0.5;entryDx=0;entryDy=0;" parent="1" source="gu4P5djcY4uK2mAo96ia-56" target="gu4P5djcY4uK2mAo96ia-35" edge="1">
          <mxGeometry relative="1" as="geometry">
            <Array as="points">
              <mxPoint x="710" y="460" />
              <mxPoint x="710" y="350" />
              <mxPoint x="830" y="350" />
              <mxPoint x="830" y="240" />
            </Array>
          </mxGeometry>
        </mxCell>
        <mxCell id="gu4P5djcY4uK2mAo96ia-56" value="&lt;font style=&quot;font-size: 16px;&quot;&gt;mParent&lt;/font&gt;" style="rounded=1;whiteSpace=wrap;html=1;fillColor=none;strokeColor=none;align=left;" parent="1" vertex="1">
          <mxGeometry x="750" y="430" width="120" height="60" as="geometry" />
        </mxCell>
        <mxCell id="gu4P5djcY4uK2mAo96ia-57" value="&lt;font style=&quot;font-size: 16px;&quot;&gt;mChildren&lt;/font&gt;" style="rounded=1;whiteSpace=wrap;html=1;fillColor=none;strokeColor=none;align=left;" parent="1" vertex="1">
          <mxGeometry x="750" y="460" width="120" height="60" as="geometry" />
        </mxCell>
        <mxCell id="gu4P5djcY4uK2mAo96ia-67" style="edgeStyle=orthogonalEdgeStyle;rounded=0;orthogonalLoop=1;jettySize=auto;html=1;exitX=0;exitY=0.5;exitDx=0;exitDy=0;fontColor=#000000;strokeColor=#FF3333;" parent="1" edge="1">
          <mxGeometry relative="1" as="geometry">
            <mxPoint x="410" y="160" as="sourcePoint" />
            <mxPoint x="210" y="210" as="targetPoint" />
          </mxGeometry>
        </mxCell>
      </root>
    </mxGraphModel>
  </diagram>
  <diagram id="7vgC-5LTvZa5OEMkbFsy" name="第 3 页">
    <mxGraphModel dx="1105" dy="658" grid="0" gridSize="10" guides="1" tooltips="1" connect="1" arrows="1" fold="1" page="1" pageScale="1" pageWidth="2336" pageHeight="1654" math="0" shadow="0">
      <root>
        <mxCell id="0" />
        <mxCell id="1" parent="0" />
        <mxCell id="xJrFBqsio7YUkfWU_fTe-12" style="edgeStyle=orthogonalEdgeStyle;rounded=0;orthogonalLoop=1;jettySize=auto;html=1;exitX=0.5;exitY=1;exitDx=0;exitDy=0;entryX=0.5;entryY=0;entryDx=0;entryDy=0;" edge="1" parent="1" source="xJrFBqsio7YUkfWU_fTe-2" target="xJrFBqsio7YUkfWU_fTe-4">
          <mxGeometry relative="1" as="geometry" />
        </mxCell>
        <mxCell id="xJrFBqsio7YUkfWU_fTe-2" value="&lt;pre style=&quot;text-align: start; overflow-wrap: break-word;&quot;&gt;&lt;font face=&quot;Comic Sans MS&quot; style=&quot;font-size: 16px;&quot;&gt;startBootstrapServices&lt;/font&gt;&lt;/pre&gt;" style="rounded=1;whiteSpace=wrap;html=1;" vertex="1" parent="1">
          <mxGeometry x="380" y="230" width="220" height="60" as="geometry" />
        </mxCell>
        <mxCell id="xJrFBqsio7YUkfWU_fTe-3" value="&lt;font style=&quot;font-size: 16px;&quot;&gt;SystemServer进程&lt;/font&gt;" style="rounded=1;whiteSpace=wrap;html=1;fillColor=none;strokeColor=none;fontFamily=Comic Sans MS;" vertex="1" parent="1">
          <mxGeometry x="380" y="180" width="230" height="60" as="geometry" />
        </mxCell>
        <mxCell id="xJrFBqsio7YUkfWU_fTe-13" style="edgeStyle=orthogonalEdgeStyle;rounded=0;orthogonalLoop=1;jettySize=auto;html=1;exitX=0.5;exitY=1;exitDx=0;exitDy=0;" edge="1" parent="1" source="xJrFBqsio7YUkfWU_fTe-4" target="xJrFBqsio7YUkfWU_fTe-5">
          <mxGeometry relative="1" as="geometry" />
        </mxCell>
        <mxCell id="xJrFBqsio7YUkfWU_fTe-4" value="&lt;div style=&quot;text-align: start; overflow-wrap: break-word;&quot;&gt;&lt;div style=&quot;overflow-wrap: break-word;&quot;&gt;&lt;font style=&quot;font-size: 16px;&quot;&gt;StartActivityManager&lt;/font&gt;&lt;/div&gt;&lt;/div&gt;" style="rounded=1;whiteSpace=wrap;html=1;fontFamily=Comic Sans MS;" vertex="1" parent="1">
          <mxGeometry x="380" y="320" width="220" height="60" as="geometry" />
        </mxCell>
        <mxCell id="xJrFBqsio7YUkfWU_fTe-14" style="edgeStyle=orthogonalEdgeStyle;rounded=0;orthogonalLoop=1;jettySize=auto;html=1;exitX=0.5;exitY=1;exitDx=0;exitDy=0;" edge="1" parent="1" source="xJrFBqsio7YUkfWU_fTe-5" target="xJrFBqsio7YUkfWU_fTe-6">
          <mxGeometry relative="1" as="geometry" />
        </mxCell>
        <mxCell id="xJrFBqsio7YUkfWU_fTe-5" value="&lt;pre style=&quot;text-align: start; overflow-wrap: break-word;&quot;&gt;&lt;pre style=&quot;overflow-wrap: break-word;&quot;&gt;&lt;font face=&quot;Comic Sans MS&quot; style=&quot;font-size: 16px;&quot;&gt;startOtherServices&lt;/font&gt;&lt;/pre&gt;&lt;/pre&gt;" style="rounded=1;whiteSpace=wrap;html=1;" vertex="1" parent="1">
          <mxGeometry x="380" y="410" width="220" height="60" as="geometry" />
        </mxCell>
        <mxCell id="xJrFBqsio7YUkfWU_fTe-16" style="edgeStyle=orthogonalEdgeStyle;rounded=0;orthogonalLoop=1;jettySize=auto;html=1;exitX=1;exitY=0.5;exitDx=0;exitDy=0;" edge="1" parent="1" source="xJrFBqsio7YUkfWU_fTe-6" target="xJrFBqsio7YUkfWU_fTe-8">
          <mxGeometry relative="1" as="geometry" />
        </mxCell>
        <mxCell id="xJrFBqsio7YUkfWU_fTe-6" value="&lt;pre style=&quot;text-align: start; overflow-wrap: break-word;&quot;&gt;&lt;pre style=&quot;overflow-wrap: break-word;&quot;&gt;&lt;pre style=&quot;overflow-wrap: break-word;&quot;&gt;&lt;font face=&quot;Comic Sans MS&quot; style=&quot;font-size: 16px;&quot;&gt;StartWindowManagerService&lt;/font&gt;&lt;/pre&gt;&lt;/pre&gt;&lt;/pre&gt;" style="rounded=1;whiteSpace=wrap;html=1;" vertex="1" parent="1">
          <mxGeometry x="380" y="500" width="220" height="60" as="geometry" />
        </mxCell>
        <mxCell id="xJrFBqsio7YUkfWU_fTe-18" style="edgeStyle=orthogonalEdgeStyle;rounded=0;orthogonalLoop=1;jettySize=auto;html=1;exitX=1;exitY=0.5;exitDx=0;exitDy=0;entryX=0;entryY=0.5;entryDx=0;entryDy=0;" edge="1" parent="1" source="xJrFBqsio7YUkfWU_fTe-7" target="xJrFBqsio7YUkfWU_fTe-9">
          <mxGeometry relative="1" as="geometry" />
        </mxCell>
        <mxCell id="xJrFBqsio7YUkfWU_fTe-7" value="&lt;pre style=&quot;text-align: start; overflow-wrap: break-word;&quot;&gt;&lt;pre style=&quot;overflow-wrap: break-word;&quot;&gt;&lt;pre style=&quot;overflow-wrap: break-word;&quot;&gt;&lt;pre style=&quot;overflow-wrap: break-word;&quot;&gt;&lt;font face=&quot;Comic Sans MS&quot; style=&quot;font-size: 16px;&quot;&gt;SetWindowManagerService&lt;/font&gt;&lt;/pre&gt;&lt;/pre&gt;&lt;/pre&gt;&lt;/pre&gt;" style="rounded=1;whiteSpace=wrap;html=1;" vertex="1" parent="1">
          <mxGeometry x="380" y="590" width="220" height="60" as="geometry" />
        </mxCell>
        <mxCell id="xJrFBqsio7YUkfWU_fTe-17" style="edgeStyle=orthogonalEdgeStyle;rounded=0;orthogonalLoop=1;jettySize=auto;html=1;exitX=0.5;exitY=1;exitDx=0;exitDy=0;entryX=0.442;entryY=0.027;entryDx=0;entryDy=0;entryPerimeter=0;" edge="1" parent="1" source="xJrFBqsio7YUkfWU_fTe-8" target="xJrFBqsio7YUkfWU_fTe-7">
          <mxGeometry relative="1" as="geometry">
            <Array as="points">
              <mxPoint x="750" y="570" />
              <mxPoint x="477" y="570" />
            </Array>
          </mxGeometry>
        </mxCell>
        <mxCell id="xJrFBqsio7YUkfWU_fTe-8" value="&lt;pre style=&quot;text-align: start; overflow-wrap: break-word;&quot;&gt;&lt;pre style=&quot;overflow-wrap: break-word; line-height: 60%;&quot;&gt;&lt;pre style=&quot;overflow-wrap: break-word; font-size: 16px; line-height: 60%;&quot;&gt;&lt;font style=&quot;font-size: 16px;&quot; face=&quot;Comic Sans MS&quot;&gt;WindowManagerService&lt;/font&gt;&lt;/pre&gt;&lt;pre style=&quot;overflow-wrap: break-word; font-size: 16px; line-height: 60%;&quot;&gt;&lt;font style=&quot;font-size: 16px;&quot; face=&quot;Comic Sans MS&quot;&gt;&lt;font style=&quot;font-size: 16px;&quot;&gt;#WindowManagerService&lt;/font&gt;&lt;/font&gt;&lt;/pre&gt;&lt;/pre&gt;&lt;/pre&gt;" style="rounded=1;whiteSpace=wrap;html=1;" vertex="1" parent="1">
          <mxGeometry x="640" y="500" width="220" height="60" as="geometry" />
        </mxCell>
        <mxCell id="xJrFBqsio7YUkfWU_fTe-19" style="edgeStyle=orthogonalEdgeStyle;rounded=0;orthogonalLoop=1;jettySize=auto;html=1;exitX=0.5;exitY=1;exitDx=0;exitDy=0;" edge="1" parent="1" source="xJrFBqsio7YUkfWU_fTe-9" target="xJrFBqsio7YUkfWU_fTe-10">
          <mxGeometry relative="1" as="geometry" />
        </mxCell>
        <mxCell id="xJrFBqsio7YUkfWU_fTe-9" value="&lt;pre style=&quot;text-align: start; overflow-wrap: break-word;&quot;&gt;&lt;pre style=&quot;overflow-wrap: break-word;&quot;&gt;&lt;pre style=&quot;overflow-wrap: break-word; font-size: 16px; line-height: 60%;&quot;&gt;&lt;pre style=&quot;overflow-wrap: break-word; line-height: 60%;&quot;&gt;&lt;font face=&quot;Comic Sans MS&quot; style=&quot;font-size: 16px;&quot;&gt;ActivityManagerService&lt;/font&gt;&lt;/pre&gt;&lt;pre style=&quot;overflow-wrap: break-word; line-height: 60%;&quot;&gt;&lt;font face=&quot;Comic Sans MS&quot; style=&quot;font-size: 16px;&quot;&gt;#&lt;/font&gt;&lt;font style=&quot;font-size: 16px;&quot; face=&quot;Comic Sans MS&quot;&gt;setWindowManager&lt;/font&gt;&lt;/pre&gt;&lt;/pre&gt;&lt;/pre&gt;&lt;/pre&gt;" style="rounded=1;whiteSpace=wrap;html=1;" vertex="1" parent="1">
          <mxGeometry x="640" y="590" width="220" height="60" as="geometry" />
        </mxCell>
        <mxCell id="xJrFBqsio7YUkfWU_fTe-20" style="edgeStyle=orthogonalEdgeStyle;rounded=0;orthogonalLoop=1;jettySize=auto;html=1;exitX=0.5;exitY=1;exitDx=0;exitDy=0;entryX=0.5;entryY=0;entryDx=0;entryDy=0;" edge="1" parent="1" source="xJrFBqsio7YUkfWU_fTe-10" target="xJrFBqsio7YUkfWU_fTe-11">
          <mxGeometry relative="1" as="geometry" />
        </mxCell>
        <mxCell id="xJrFBqsio7YUkfWU_fTe-10" value="&lt;pre style=&quot;text-align: start; overflow-wrap: break-word;&quot;&gt;&lt;pre style=&quot;overflow-wrap: break-word; font-size: 16px;&quot;&gt;&lt;pre style=&quot;overflow-wrap: break-word; line-height: 60%;&quot;&gt;&lt;pre style=&quot;overflow-wrap: break-word; line-height: 60%;&quot;&gt;&lt;font face=&quot;Comic Sans MS&quot;&gt;&lt;font style=&quot;font-size: 16px;&quot;&gt;ActivityTaskManagerService&lt;/font&gt;&lt;span style=&quot;&quot;&gt;&lt;br&gt;&lt;/span&gt;&lt;/font&gt;&lt;/pre&gt;&lt;pre style=&quot;overflow-wrap: break-word; line-height: 60%;&quot;&gt;&lt;font face=&quot;Comic Sans MS&quot; style=&quot;font-size: 16px;&quot;&gt;#&lt;/font&gt;&lt;font style=&quot;font-size: 16px;&quot; face=&quot;Comic Sans MS&quot;&gt;setWindowManager&lt;/font&gt;&lt;/pre&gt;&lt;/pre&gt;&lt;/pre&gt;&lt;/pre&gt;" style="rounded=1;whiteSpace=wrap;html=1;" vertex="1" parent="1">
          <mxGeometry x="640" y="670" width="220" height="60" as="geometry" />
        </mxCell>
        <mxCell id="xJrFBqsio7YUkfWU_fTe-11" value="&lt;pre style=&quot;text-align: start; overflow-wrap: break-word; line-height: 60%;&quot;&gt;&lt;pre style=&quot;overflow-wrap: break-word; font-size: 16px; line-height: 60%;&quot;&gt;&lt;pre style=&quot;overflow-wrap: break-word; line-height: 60%;&quot;&gt;&lt;pre style=&quot;overflow-wrap: break-word;&quot;&gt;&lt;font face=&quot;Comic Sans MS&quot;&gt;RootWindow&lt;span style=&quot;color: rgb(51, 51, 51); orphans: 4; background-color: rgb(255, 255, 255);&quot;&gt;Container&lt;/span&gt;&lt;/font&gt;&lt;/pre&gt;&lt;pre style=&quot;overflow-wrap: break-word; line-height: 60%;&quot;&gt;&lt;font style=&quot;background-color: initial; white-space: normal;&quot; face=&quot;Comic Sans MS&quot;&gt;#&lt;/font&gt;&lt;font style=&quot;background-color: initial; white-space: normal;&quot; face=&quot;Comic Sans MS&quot;&gt;setWindowManager&lt;/font&gt;&lt;/pre&gt;&lt;/pre&gt;&lt;/pre&gt;&lt;/pre&gt;" style="rounded=1;whiteSpace=wrap;html=1;" vertex="1" parent="1">
          <mxGeometry x="640" y="760" width="220" height="60" as="geometry" />
        </mxCell>
      </root>
    </mxGraphModel>
  </diagram>
  <diagram id="CIBewz4--yvHWxS0qzz2" name="第 4 页">
    <mxGraphModel dx="1050" dy="625" grid="0" gridSize="10" guides="1" tooltips="1" connect="1" arrows="1" fold="1" page="1" pageScale="1" pageWidth="2336" pageHeight="1654" math="0" shadow="0">
      <root>
        <mxCell id="0" />
        <mxCell id="1" parent="0" />
        <mxCell id="PUHV8RP8a2pXFHoATpn8-6" value="" style="rounded=1;whiteSpace=wrap;html=1;arcSize=5;fillColor=#f5f5f5;fontColor=#333333;strokeColor=#666666;" vertex="1" parent="1">
          <mxGeometry x="510" y="120" width="320" height="510" as="geometry" />
        </mxCell>
        <mxCell id="1K3YxcE1mHcZ5iZf0G28-1" value="&lt;div style=&quot;font-size: 16px; line-height: 19px;&quot;&gt;&lt;font style=&quot;font-size: 16px;&quot; face=&quot;Comic Sans MS&quot;&gt;&lt;/font&gt;&lt;table&gt;&lt;tbody style=&quot;background-color: rgb(255, 255, 255);&quot;&gt;&lt;tr&gt;&lt;td&gt;&lt;div style=&quot;line-height: 19px;&quot;&gt;&lt;font style=&quot;font-size: 16px;&quot; face=&quot;Comic Sans MS&quot;&gt;String mName&lt;/font&gt;&lt;/div&gt;&lt;/td&gt;&lt;/tr&gt;&lt;tr&gt;&lt;td style=&quot;&quot;&gt;&lt;font style=&quot;font-size: 16px;&quot; face=&quot;Comic Sans MS&quot;&gt;int mId&lt;br&gt;&lt;/font&gt;&lt;/td&gt;&lt;/tr&gt;&lt;tr&gt;&lt;td style=&quot;&quot;&gt;&lt;font style=&quot;font-size: 16px;&quot; face=&quot;Comic Sans MS&quot;&gt;boolean[] mWindowLayers&lt;br&gt;&lt;/font&gt;&lt;/td&gt;&lt;/tr&gt;&lt;tr&gt;&lt;td style=&quot;&quot;&gt;&lt;font style=&quot;font-size: 16px;&quot; face=&quot;Comic Sans MS&quot;&gt;NewDisplayAreaSupplier mNewDisplayAreaSupplier&lt;br&gt;&lt;/font&gt;&lt;/td&gt;&lt;/tr&gt;&lt;/tbody&gt;&lt;/table&gt;&lt;/div&gt;" style="rounded=1;whiteSpace=wrap;html=1;align=left;arcSize=11;fillColor=#dae8fc;strokeColor=#6c8ebf;" vertex="1" parent="1">
          <mxGeometry x="510" y="120" width="280" height="120" as="geometry" />
        </mxCell>
        <mxCell id="PUHV8RP8a2pXFHoATpn8-1" value="&lt;span style=&quot;font-size: 16px;&quot;&gt;Feature&lt;/span&gt;" style="rounded=1;whiteSpace=wrap;html=1;fillColor=none;strokeColor=none;fontFamily=Comic Sans MS;" vertex="1" parent="1">
          <mxGeometry x="540" y="60" width="230" height="60" as="geometry" />
        </mxCell>
        <mxCell id="PUHV8RP8a2pXFHoATpn8-2" value="&lt;table style=&quot;font-size: 14px;&quot;&gt;&lt;tbody&gt;&lt;tr&gt;&lt;td&gt;&lt;font face=&quot;Comic Sans MS&quot; style=&quot;font-size: 14px;&quot;&gt;WindowManagerPolicy mPolicy&lt;br&gt;&lt;/font&gt;&lt;/td&gt;&lt;/tr&gt;&lt;tr&gt;&lt;td&gt;&lt;font face=&quot;Comic Sans MS&quot; style=&quot;font-size: 14px;&quot;&gt;String mName&lt;br&gt;&lt;/font&gt;&lt;/td&gt;&lt;/tr&gt;&lt;tr&gt;&lt;td&gt;&lt;font face=&quot;Comic Sans MS&quot; style=&quot;font-size: 14px;&quot;&gt;int mId&lt;br&gt;&lt;/font&gt;&lt;/td&gt;&lt;/tr&gt;&lt;tr&gt;&lt;td&gt;&lt;font face=&quot;Comic Sans MS&quot; style=&quot;font-size: 14px;&quot;&gt;boolean[] mLayers&lt;br&gt;&lt;/font&gt;&lt;/td&gt;&lt;/tr&gt;&lt;tr&gt;&lt;td&gt;&lt;font face=&quot;Comic Sans MS&quot; style=&quot;font-size: 14px;&quot;&gt;NewDisplayAreaSupplier mNewDisplayAreaSupplier = DisplayArea::new&lt;br&gt;&lt;/font&gt;&lt;/td&gt;&lt;/tr&gt;&lt;/tbody&gt;&lt;/table&gt;" style="rounded=1;whiteSpace=wrap;html=1;align=left;arcSize=8;fillColor=#d5e8d4;strokeColor=#82b366;" vertex="1" parent="1">
          <mxGeometry x="510" y="280" width="290" height="140" as="geometry" />
        </mxCell>
        <mxCell id="PUHV8RP8a2pXFHoATpn8-3" value="&lt;span style=&quot;font-size: 16px;&quot;&gt;Builder&lt;/span&gt;" style="rounded=1;whiteSpace=wrap;html=1;fillColor=none;strokeColor=none;fontFamily=Comic Sans MS;" vertex="1" parent="1">
          <mxGeometry x="540" y="240" width="230" height="60" as="geometry" />
        </mxCell>
        <mxCell id="PUHV8RP8a2pXFHoATpn8-4" value="&lt;table style=&quot;font-size: 14px;&quot;&gt;&lt;tbody&gt;&lt;tr&gt;&lt;td&gt;&lt;font style=&quot;font-size: 14px;&quot; face=&quot;Comic Sans MS&quot;&gt;Builder::Builder&lt;/font&gt;&lt;/td&gt;&lt;/tr&gt;&lt;tr&gt;&lt;td&gt;&lt;font style=&quot;font-size: 14px;&quot; face=&quot;Comic Sans MS&quot;&gt;Builder::all&lt;br&gt;&lt;/font&gt;&lt;/td&gt;&lt;/tr&gt;&lt;tr&gt;&lt;td&gt;&lt;font style=&quot;font-size: 14px;&quot; face=&quot;Comic Sans MS&quot;&gt;Builder::and&lt;br&gt;&lt;/font&gt;&lt;/td&gt;&lt;/tr&gt;&lt;tr&gt;&lt;td&gt;&lt;font style=&quot;font-size: 14px;&quot; face=&quot;Comic Sans MS&quot;&gt;Builder::except&lt;br&gt;&lt;/font&gt;&lt;/td&gt;&lt;/tr&gt;&lt;tr&gt;&lt;td&gt;&lt;font style=&quot;font-size: 14px;&quot; face=&quot;Comic Sans MS&quot;&gt;Builder::upTo&lt;br&gt;&lt;/font&gt;&lt;/td&gt;&lt;/tr&gt;&lt;tr&gt;&lt;td&gt;&lt;font style=&quot;font-size: 14px;&quot; face=&quot;Comic Sans MS&quot;&gt;Builder::setNewDisplayAreaSupplier&lt;br&gt;&lt;/font&gt;&lt;/td&gt;&lt;/tr&gt;&lt;tr&gt;&lt;td&gt;&lt;font style=&quot;font-size: 14px;&quot; face=&quot;Comic Sans MS&quot;&gt;Builder::setExcludeRoundedCornerOverlay&lt;br&gt;&lt;/font&gt;&lt;/td&gt;&lt;/tr&gt;&lt;tr&gt;&lt;td&gt;&lt;font style=&quot;font-size: 14px;&quot; face=&quot;Comic Sans MS&quot;&gt;Builder::build&lt;br&gt;&lt;/font&gt;&lt;/td&gt;&lt;/tr&gt;&lt;tr&gt;&lt;td&gt;&lt;font style=&quot;font-size: 14px;&quot; face=&quot;Comic Sans MS&quot;&gt;Builder::set&lt;/font&gt;&lt;/td&gt;&lt;/tr&gt;&lt;tr&gt;&lt;td&gt;&lt;font style=&quot;font-size: 14px;&quot; face=&quot;Comic Sans MS&quot;&gt;Builder::layerFromType&lt;br&gt;&lt;/font&gt;&lt;/td&gt;&lt;/tr&gt;&lt;/tbody&gt;&lt;/table&gt;" style="rounded=1;whiteSpace=wrap;html=1;align=left;arcSize=7;fillColor=#d5e8d4;strokeColor=#82b366;" vertex="1" parent="1">
          <mxGeometry x="510" y="420" width="290" height="210" as="geometry" />
        </mxCell>
        <mxCell id="PUHV8RP8a2pXFHoATpn8-7" value="" style="shape=table;startSize=0;container=1;collapsible=0;childLayout=tableLayout;fontSize=16;" vertex="1" parent="1">
          <mxGeometry x="67" y="170" width="208" height="160" as="geometry" />
        </mxCell>
        <mxCell id="PUHV8RP8a2pXFHoATpn8-8" value="" style="shape=tableRow;horizontal=0;startSize=0;swimlaneHead=0;swimlaneBody=0;strokeColor=inherit;top=0;left=0;bottom=0;right=0;collapsible=0;dropTarget=0;fillColor=none;points=[[0,0.5],[1,0.5]];portConstraint=eastwest;" vertex="1" parent="PUHV8RP8a2pXFHoATpn8-7">
          <mxGeometry width="208" height="40" as="geometry" />
        </mxCell>
        <mxCell id="PUHV8RP8a2pXFHoATpn8-9" value="&lt;font style=&quot;font-size: 16px;&quot;&gt;&quot;WindowedMagnification&quot;&lt;/font&gt;" style="shape=partialRectangle;html=1;whiteSpace=wrap;connectable=0;strokeColor=inherit;overflow=hidden;fillColor=none;top=0;left=0;bottom=0;right=0;pointerEvents=1;fontFamily=Comic Sans MS;" vertex="1" parent="PUHV8RP8a2pXFHoATpn8-8">
          <mxGeometry width="208" height="40" as="geometry">
            <mxRectangle width="208" height="40" as="alternateBounds" />
          </mxGeometry>
        </mxCell>
        <mxCell id="PUHV8RP8a2pXFHoATpn8-10" value="" style="shape=tableRow;horizontal=0;startSize=0;swimlaneHead=0;swimlaneBody=0;strokeColor=inherit;top=0;left=0;bottom=0;right=0;collapsible=0;dropTarget=0;fillColor=none;points=[[0,0.5],[1,0.5]];portConstraint=eastwest;" vertex="1" parent="PUHV8RP8a2pXFHoATpn8-7">
          <mxGeometry y="40" width="208" height="40" as="geometry" />
        </mxCell>
        <mxCell id="PUHV8RP8a2pXFHoATpn8-11" value="&lt;font style=&quot;font-size: 16px;&quot;&gt;4&lt;/font&gt;" style="shape=partialRectangle;html=1;whiteSpace=wrap;connectable=0;strokeColor=inherit;overflow=hidden;fillColor=none;top=0;left=0;bottom=0;right=0;pointerEvents=1;fontFamily=Comic Sans MS;" vertex="1" parent="PUHV8RP8a2pXFHoATpn8-10">
          <mxGeometry width="208" height="40" as="geometry">
            <mxRectangle width="208" height="40" as="alternateBounds" />
          </mxGeometry>
        </mxCell>
        <mxCell id="PUHV8RP8a2pXFHoATpn8-12" value="" style="shape=tableRow;horizontal=0;startSize=0;swimlaneHead=0;swimlaneBody=0;strokeColor=inherit;top=0;left=0;bottom=0;right=0;collapsible=0;dropTarget=0;fillColor=none;points=[[0,0.5],[1,0.5]];portConstraint=eastwest;" vertex="1" parent="PUHV8RP8a2pXFHoATpn8-7">
          <mxGeometry y="80" width="208" height="40" as="geometry" />
        </mxCell>
        <mxCell id="PUHV8RP8a2pXFHoATpn8-13" value="&lt;font style=&quot;font-size: 16px;&quot;&gt;(0,31)为true&lt;/font&gt;" style="shape=partialRectangle;html=1;whiteSpace=wrap;connectable=0;strokeColor=inherit;overflow=hidden;fillColor=none;top=0;left=0;bottom=0;right=0;pointerEvents=1;fontFamily=Comic Sans MS;" vertex="1" parent="PUHV8RP8a2pXFHoATpn8-12">
          <mxGeometry width="208" height="40" as="geometry">
            <mxRectangle width="208" height="40" as="alternateBounds" />
          </mxGeometry>
        </mxCell>
        <mxCell id="PUHV8RP8a2pXFHoATpn8-14" value="" style="shape=tableRow;horizontal=0;startSize=0;swimlaneHead=0;swimlaneBody=0;strokeColor=inherit;top=0;left=0;bottom=0;right=0;collapsible=0;dropTarget=0;fillColor=none;points=[[0,0.5],[1,0.5]];portConstraint=eastwest;" vertex="1" parent="PUHV8RP8a2pXFHoATpn8-7">
          <mxGeometry y="120" width="208" height="40" as="geometry" />
        </mxCell>
        <mxCell id="PUHV8RP8a2pXFHoATpn8-15" value="&lt;font face=&quot;Comic Sans MS&quot; style=&quot;font-size: 16px;&quot;&gt;DisplayArea.Dimmable::new&lt;/font&gt;" style="shape=partialRectangle;html=1;whiteSpace=wrap;connectable=0;strokeColor=inherit;overflow=hidden;fillColor=none;top=0;left=0;bottom=0;right=0;pointerEvents=1;" vertex="1" parent="PUHV8RP8a2pXFHoATpn8-14">
          <mxGeometry width="208" height="40" as="geometry">
            <mxRectangle width="208" height="40" as="alternateBounds" />
          </mxGeometry>
        </mxCell>
      </root>
    </mxGraphModel>
  </diagram>
  <diagram id="Am8lQW33ZQr_DGQv89nu" name="5种特色">
    <mxGraphModel dx="1050" dy="625" grid="0" gridSize="10" guides="1" tooltips="1" connect="1" arrows="1" fold="1" page="1" pageScale="1" pageWidth="2336" pageHeight="1654" math="0" shadow="0">
      <root>
        <mxCell id="0" />
        <mxCell id="1" parent="0" />
        <mxCell id="EGeZLPn4iddL7TTvWUzM-1" value="" style="shape=table;startSize=0;container=1;collapsible=0;childLayout=tableLayout;fontSize=16;" vertex="1" parent="1">
          <mxGeometry x="67" y="170" width="208" height="160" as="geometry" />
        </mxCell>
        <mxCell id="EGeZLPn4iddL7TTvWUzM-2" value="" style="shape=tableRow;horizontal=0;startSize=0;swimlaneHead=0;swimlaneBody=0;strokeColor=inherit;top=0;left=0;bottom=0;right=0;collapsible=0;dropTarget=0;fillColor=none;points=[[0,0.5],[1,0.5]];portConstraint=eastwest;" vertex="1" parent="EGeZLPn4iddL7TTvWUzM-1">
          <mxGeometry width="208" height="40" as="geometry" />
        </mxCell>
        <mxCell id="EGeZLPn4iddL7TTvWUzM-3" value="&lt;font style=&quot;font-size: 16px;&quot;&gt;&quot;WindowedMagnification&quot;&lt;/font&gt;" style="shape=partialRectangle;html=1;whiteSpace=wrap;connectable=0;strokeColor=inherit;overflow=hidden;fillColor=none;top=0;left=0;bottom=0;right=0;pointerEvents=1;fontFamily=Comic Sans MS;" vertex="1" parent="EGeZLPn4iddL7TTvWUzM-2">
          <mxGeometry width="208" height="40" as="geometry">
            <mxRectangle width="208" height="40" as="alternateBounds" />
          </mxGeometry>
        </mxCell>
        <mxCell id="EGeZLPn4iddL7TTvWUzM-4" value="" style="shape=tableRow;horizontal=0;startSize=0;swimlaneHead=0;swimlaneBody=0;strokeColor=inherit;top=0;left=0;bottom=0;right=0;collapsible=0;dropTarget=0;fillColor=none;points=[[0,0.5],[1,0.5]];portConstraint=eastwest;" vertex="1" parent="EGeZLPn4iddL7TTvWUzM-1">
          <mxGeometry y="40" width="208" height="40" as="geometry" />
        </mxCell>
        <mxCell id="EGeZLPn4iddL7TTvWUzM-5" value="&lt;font style=&quot;font-size: 16px;&quot;&gt;4&lt;/font&gt;" style="shape=partialRectangle;html=1;whiteSpace=wrap;connectable=0;strokeColor=inherit;overflow=hidden;fillColor=none;top=0;left=0;bottom=0;right=0;pointerEvents=1;fontFamily=Comic Sans MS;" vertex="1" parent="EGeZLPn4iddL7TTvWUzM-4">
          <mxGeometry width="208" height="40" as="geometry">
            <mxRectangle width="208" height="40" as="alternateBounds" />
          </mxGeometry>
        </mxCell>
        <mxCell id="EGeZLPn4iddL7TTvWUzM-6" value="" style="shape=tableRow;horizontal=0;startSize=0;swimlaneHead=0;swimlaneBody=0;strokeColor=inherit;top=0;left=0;bottom=0;right=0;collapsible=0;dropTarget=0;fillColor=none;points=[[0,0.5],[1,0.5]];portConstraint=eastwest;" vertex="1" parent="EGeZLPn4iddL7TTvWUzM-1">
          <mxGeometry y="80" width="208" height="40" as="geometry" />
        </mxCell>
        <mxCell id="EGeZLPn4iddL7TTvWUzM-7" value="&lt;font style=&quot;font-size: 16px;&quot;&gt;(0,31)为true&lt;/font&gt;" style="shape=partialRectangle;html=1;whiteSpace=wrap;connectable=0;strokeColor=inherit;overflow=hidden;fillColor=none;top=0;left=0;bottom=0;right=0;pointerEvents=1;fontFamily=Comic Sans MS;" vertex="1" parent="EGeZLPn4iddL7TTvWUzM-6">
          <mxGeometry width="208" height="40" as="geometry">
            <mxRectangle width="208" height="40" as="alternateBounds" />
          </mxGeometry>
        </mxCell>
        <mxCell id="EGeZLPn4iddL7TTvWUzM-8" value="" style="shape=tableRow;horizontal=0;startSize=0;swimlaneHead=0;swimlaneBody=0;strokeColor=inherit;top=0;left=0;bottom=0;right=0;collapsible=0;dropTarget=0;fillColor=none;points=[[0,0.5],[1,0.5]];portConstraint=eastwest;" vertex="1" parent="EGeZLPn4iddL7TTvWUzM-1">
          <mxGeometry y="120" width="208" height="40" as="geometry" />
        </mxCell>
        <mxCell id="EGeZLPn4iddL7TTvWUzM-9" value="&lt;font face=&quot;Comic Sans MS&quot; style=&quot;font-size: 16px;&quot;&gt;DisplayArea.Dimmable::new&lt;/font&gt;" style="shape=partialRectangle;html=1;whiteSpace=wrap;connectable=0;strokeColor=inherit;overflow=hidden;fillColor=none;top=0;left=0;bottom=0;right=0;pointerEvents=1;" vertex="1" parent="EGeZLPn4iddL7TTvWUzM-8">
          <mxGeometry width="208" height="40" as="geometry">
            <mxRectangle width="208" height="40" as="alternateBounds" />
          </mxGeometry>
        </mxCell>
        <mxCell id="EGeZLPn4iddL7TTvWUzM-10" value="" style="shape=table;startSize=0;container=1;collapsible=0;childLayout=tableLayout;fontSize=16;" vertex="1" parent="1">
          <mxGeometry x="289" y="170" width="208" height="160" as="geometry" />
        </mxCell>
        <mxCell id="EGeZLPn4iddL7TTvWUzM-11" value="" style="shape=tableRow;horizontal=0;startSize=0;swimlaneHead=0;swimlaneBody=0;strokeColor=inherit;top=0;left=0;bottom=0;right=0;collapsible=0;dropTarget=0;fillColor=none;points=[[0,0.5],[1,0.5]];portConstraint=eastwest;" vertex="1" parent="EGeZLPn4iddL7TTvWUzM-10">
          <mxGeometry width="208" height="40" as="geometry" />
        </mxCell>
        <mxCell id="EGeZLPn4iddL7TTvWUzM-12" value="&lt;font style=&quot;font-size: 16px;&quot;&gt;&quot;HideDisplayCutout&quot;&lt;/font&gt;" style="shape=partialRectangle;html=1;whiteSpace=wrap;connectable=0;strokeColor=inherit;overflow=hidden;fillColor=none;top=0;left=0;bottom=0;right=0;pointerEvents=1;fontFamily=Comic Sans MS;" vertex="1" parent="EGeZLPn4iddL7TTvWUzM-11">
          <mxGeometry width="208" height="40" as="geometry">
            <mxRectangle width="208" height="40" as="alternateBounds" />
          </mxGeometry>
        </mxCell>
        <mxCell id="EGeZLPn4iddL7TTvWUzM-13" value="" style="shape=tableRow;horizontal=0;startSize=0;swimlaneHead=0;swimlaneBody=0;strokeColor=inherit;top=0;left=0;bottom=0;right=0;collapsible=0;dropTarget=0;fillColor=none;points=[[0,0.5],[1,0.5]];portConstraint=eastwest;" vertex="1" parent="EGeZLPn4iddL7TTvWUzM-10">
          <mxGeometry y="40" width="208" height="40" as="geometry" />
        </mxCell>
        <mxCell id="EGeZLPn4iddL7TTvWUzM-14" value="&lt;font style=&quot;font-size: 16px;&quot;&gt;6&lt;/font&gt;" style="shape=partialRectangle;html=1;whiteSpace=wrap;connectable=0;strokeColor=inherit;overflow=hidden;fillColor=none;top=0;left=0;bottom=0;right=0;pointerEvents=1;fontFamily=Comic Sans MS;" vertex="1" parent="EGeZLPn4iddL7TTvWUzM-13">
          <mxGeometry width="208" height="40" as="geometry">
            <mxRectangle width="208" height="40" as="alternateBounds" />
          </mxGeometry>
        </mxCell>
        <mxCell id="EGeZLPn4iddL7TTvWUzM-15" value="" style="shape=tableRow;horizontal=0;startSize=0;swimlaneHead=0;swimlaneBody=0;strokeColor=inherit;top=0;left=0;bottom=0;right=0;collapsible=0;dropTarget=0;fillColor=none;points=[[0,0.5],[1,0.5]];portConstraint=eastwest;" vertex="1" parent="EGeZLPn4iddL7TTvWUzM-10">
          <mxGeometry y="80" width="208" height="40" as="geometry" />
        </mxCell>
        <mxCell id="EGeZLPn4iddL7TTvWUzM-16" value="&lt;font style=&quot;font-size: 16px;&quot;&gt;除了24,,25,15,17为true&lt;/font&gt;" style="shape=partialRectangle;html=1;whiteSpace=wrap;connectable=0;strokeColor=inherit;overflow=hidden;fillColor=none;top=0;left=0;bottom=0;right=0;pointerEvents=1;fontFamily=Comic Sans MS;" vertex="1" parent="EGeZLPn4iddL7TTvWUzM-15">
          <mxGeometry width="208" height="40" as="geometry">
            <mxRectangle width="208" height="40" as="alternateBounds" />
          </mxGeometry>
        </mxCell>
        <mxCell id="EGeZLPn4iddL7TTvWUzM-17" value="" style="shape=tableRow;horizontal=0;startSize=0;swimlaneHead=0;swimlaneBody=0;strokeColor=inherit;top=0;left=0;bottom=0;right=0;collapsible=0;dropTarget=0;fillColor=none;points=[[0,0.5],[1,0.5]];portConstraint=eastwest;" vertex="1" parent="EGeZLPn4iddL7TTvWUzM-10">
          <mxGeometry y="120" width="208" height="40" as="geometry" />
        </mxCell>
        <mxCell id="EGeZLPn4iddL7TTvWUzM-18" value="&lt;font face=&quot;Comic Sans MS&quot; style=&quot;font-size: 16px;&quot;&gt;DisplayArea::new&lt;/font&gt;" style="shape=partialRectangle;html=1;whiteSpace=wrap;connectable=0;strokeColor=inherit;overflow=hidden;fillColor=none;top=0;left=0;bottom=0;right=0;pointerEvents=1;" vertex="1" parent="EGeZLPn4iddL7TTvWUzM-17">
          <mxGeometry width="208" height="40" as="geometry">
            <mxRectangle width="208" height="40" as="alternateBounds" />
          </mxGeometry>
        </mxCell>
        <mxCell id="EGeZLPn4iddL7TTvWUzM-28" value="" style="shape=table;startSize=0;container=1;collapsible=0;childLayout=tableLayout;fontSize=16;" vertex="1" parent="1">
          <mxGeometry x="511" y="170" width="208" height="160" as="geometry" />
        </mxCell>
        <mxCell id="EGeZLPn4iddL7TTvWUzM-29" value="" style="shape=tableRow;horizontal=0;startSize=0;swimlaneHead=0;swimlaneBody=0;strokeColor=inherit;top=0;left=0;bottom=0;right=0;collapsible=0;dropTarget=0;fillColor=none;points=[[0,0.5],[1,0.5]];portConstraint=eastwest;" vertex="1" parent="EGeZLPn4iddL7TTvWUzM-28">
          <mxGeometry width="208" height="40" as="geometry" />
        </mxCell>
        <mxCell id="EGeZLPn4iddL7TTvWUzM-30" value="&lt;font style=&quot;font-size: 16px;&quot;&gt;&quot;OneHanded&quot;&lt;/font&gt;" style="shape=partialRectangle;html=1;whiteSpace=wrap;connectable=0;strokeColor=inherit;overflow=hidden;fillColor=none;top=0;left=0;bottom=0;right=0;pointerEvents=1;fontFamily=Comic Sans MS;" vertex="1" parent="EGeZLPn4iddL7TTvWUzM-29">
          <mxGeometry width="208" height="40" as="geometry">
            <mxRectangle width="208" height="40" as="alternateBounds" />
          </mxGeometry>
        </mxCell>
        <mxCell id="EGeZLPn4iddL7TTvWUzM-31" value="" style="shape=tableRow;horizontal=0;startSize=0;swimlaneHead=0;swimlaneBody=0;strokeColor=inherit;top=0;left=0;bottom=0;right=0;collapsible=0;dropTarget=0;fillColor=none;points=[[0,0.5],[1,0.5]];portConstraint=eastwest;" vertex="1" parent="EGeZLPn4iddL7TTvWUzM-28">
          <mxGeometry y="40" width="208" height="40" as="geometry" />
        </mxCell>
        <mxCell id="EGeZLPn4iddL7TTvWUzM-32" value="&lt;font style=&quot;font-size: 16px;&quot;&gt;3&lt;/font&gt;" style="shape=partialRectangle;html=1;whiteSpace=wrap;connectable=0;strokeColor=inherit;overflow=hidden;fillColor=none;top=0;left=0;bottom=0;right=0;pointerEvents=1;fontFamily=Comic Sans MS;" vertex="1" parent="EGeZLPn4iddL7TTvWUzM-31">
          <mxGeometry width="208" height="40" as="geometry">
            <mxRectangle width="208" height="40" as="alternateBounds" />
          </mxGeometry>
        </mxCell>
        <mxCell id="EGeZLPn4iddL7TTvWUzM-33" value="" style="shape=tableRow;horizontal=0;startSize=0;swimlaneHead=0;swimlaneBody=0;strokeColor=inherit;top=0;left=0;bottom=0;right=0;collapsible=0;dropTarget=0;fillColor=none;points=[[0,0.5],[1,0.5]];portConstraint=eastwest;" vertex="1" parent="EGeZLPn4iddL7TTvWUzM-28">
          <mxGeometry y="80" width="208" height="40" as="geometry" />
        </mxCell>
        <mxCell id="EGeZLPn4iddL7TTvWUzM-34" value="&lt;span style=&quot;font-size: 16px;&quot;&gt;除了24,25,33为true&lt;/span&gt;" style="shape=partialRectangle;html=1;whiteSpace=wrap;connectable=0;strokeColor=inherit;overflow=hidden;fillColor=none;top=0;left=0;bottom=0;right=0;pointerEvents=1;fontFamily=Comic Sans MS;" vertex="1" parent="EGeZLPn4iddL7TTvWUzM-33">
          <mxGeometry width="208" height="40" as="geometry">
            <mxRectangle width="208" height="40" as="alternateBounds" />
          </mxGeometry>
        </mxCell>
        <mxCell id="EGeZLPn4iddL7TTvWUzM-35" value="" style="shape=tableRow;horizontal=0;startSize=0;swimlaneHead=0;swimlaneBody=0;strokeColor=inherit;top=0;left=0;bottom=0;right=0;collapsible=0;dropTarget=0;fillColor=none;points=[[0,0.5],[1,0.5]];portConstraint=eastwest;" vertex="1" parent="EGeZLPn4iddL7TTvWUzM-28">
          <mxGeometry y="120" width="208" height="40" as="geometry" />
        </mxCell>
        <mxCell id="EGeZLPn4iddL7TTvWUzM-36" value="&lt;font face=&quot;Comic Sans MS&quot; style=&quot;font-size: 16px;&quot;&gt;DisplayArea::new&lt;/font&gt;" style="shape=partialRectangle;html=1;whiteSpace=wrap;connectable=0;strokeColor=inherit;overflow=hidden;fillColor=none;top=0;left=0;bottom=0;right=0;pointerEvents=1;" vertex="1" parent="EGeZLPn4iddL7TTvWUzM-35">
          <mxGeometry width="208" height="40" as="geometry">
            <mxRectangle width="208" height="40" as="alternateBounds" />
          </mxGeometry>
        </mxCell>
        <mxCell id="EGeZLPn4iddL7TTvWUzM-37" value="" style="shape=table;startSize=0;container=1;collapsible=0;childLayout=tableLayout;fontSize=16;" vertex="1" parent="1">
          <mxGeometry x="160" y="370" width="226" height="160" as="geometry" />
        </mxCell>
        <mxCell id="EGeZLPn4iddL7TTvWUzM-38" value="" style="shape=tableRow;horizontal=0;startSize=0;swimlaneHead=0;swimlaneBody=0;strokeColor=inherit;top=0;left=0;bottom=0;right=0;collapsible=0;dropTarget=0;fillColor=none;points=[[0,0.5],[1,0.5]];portConstraint=eastwest;" vertex="1" parent="EGeZLPn4iddL7TTvWUzM-37">
          <mxGeometry width="226" height="40" as="geometry" />
        </mxCell>
        <mxCell id="EGeZLPn4iddL7TTvWUzM-39" value="&lt;font style=&quot;font-size: 16px;&quot;&gt;&quot;FullscreenMagnification&quot;&lt;/font&gt;" style="shape=partialRectangle;html=1;whiteSpace=wrap;connectable=0;strokeColor=inherit;overflow=hidden;fillColor=none;top=0;left=0;bottom=0;right=0;pointerEvents=1;fontFamily=Comic Sans MS;" vertex="1" parent="EGeZLPn4iddL7TTvWUzM-38">
          <mxGeometry width="226" height="40" as="geometry">
            <mxRectangle width="226" height="40" as="alternateBounds" />
          </mxGeometry>
        </mxCell>
        <mxCell id="EGeZLPn4iddL7TTvWUzM-40" value="" style="shape=tableRow;horizontal=0;startSize=0;swimlaneHead=0;swimlaneBody=0;strokeColor=inherit;top=0;left=0;bottom=0;right=0;collapsible=0;dropTarget=0;fillColor=none;points=[[0,0.5],[1,0.5]];portConstraint=eastwest;" vertex="1" parent="EGeZLPn4iddL7TTvWUzM-37">
          <mxGeometry y="40" width="226" height="40" as="geometry" />
        </mxCell>
        <mxCell id="EGeZLPn4iddL7TTvWUzM-41" value="&lt;font style=&quot;font-size: 16px;&quot;&gt;5&lt;/font&gt;" style="shape=partialRectangle;html=1;whiteSpace=wrap;connectable=0;strokeColor=inherit;overflow=hidden;fillColor=none;top=0;left=0;bottom=0;right=0;pointerEvents=1;fontFamily=Comic Sans MS;" vertex="1" parent="EGeZLPn4iddL7TTvWUzM-40">
          <mxGeometry width="226" height="40" as="geometry">
            <mxRectangle width="226" height="40" as="alternateBounds" />
          </mxGeometry>
        </mxCell>
        <mxCell id="EGeZLPn4iddL7TTvWUzM-42" value="" style="shape=tableRow;horizontal=0;startSize=0;swimlaneHead=0;swimlaneBody=0;strokeColor=inherit;top=0;left=0;bottom=0;right=0;collapsible=0;dropTarget=0;fillColor=none;points=[[0,0.5],[1,0.5]];portConstraint=eastwest;" vertex="1" parent="EGeZLPn4iddL7TTvWUzM-37">
          <mxGeometry y="80" width="226" height="40" as="geometry" />
        </mxCell>
        <mxCell id="EGeZLPn4iddL7TTvWUzM-43" value="&lt;font style=&quot;font-size: 16px;&quot;&gt;除了32,,13,14,28,24,25为true&lt;/font&gt;" style="shape=partialRectangle;html=1;whiteSpace=wrap;connectable=0;strokeColor=inherit;overflow=hidden;fillColor=none;top=0;left=0;bottom=0;right=0;pointerEvents=1;fontFamily=Comic Sans MS;" vertex="1" parent="EGeZLPn4iddL7TTvWUzM-42">
          <mxGeometry width="226" height="40" as="geometry">
            <mxRectangle width="226" height="40" as="alternateBounds" />
          </mxGeometry>
        </mxCell>
        <mxCell id="EGeZLPn4iddL7TTvWUzM-44" value="" style="shape=tableRow;horizontal=0;startSize=0;swimlaneHead=0;swimlaneBody=0;strokeColor=inherit;top=0;left=0;bottom=0;right=0;collapsible=0;dropTarget=0;fillColor=none;points=[[0,0.5],[1,0.5]];portConstraint=eastwest;" vertex="1" parent="EGeZLPn4iddL7TTvWUzM-37">
          <mxGeometry y="120" width="226" height="40" as="geometry" />
        </mxCell>
        <mxCell id="EGeZLPn4iddL7TTvWUzM-45" value="&lt;font face=&quot;Comic Sans MS&quot; style=&quot;font-size: 16px;&quot;&gt;DisplayArea::new&lt;/font&gt;" style="shape=partialRectangle;html=1;whiteSpace=wrap;connectable=0;strokeColor=inherit;overflow=hidden;fillColor=none;top=0;left=0;bottom=0;right=0;pointerEvents=1;" vertex="1" parent="EGeZLPn4iddL7TTvWUzM-44">
          <mxGeometry width="226" height="40" as="geometry">
            <mxRectangle width="226" height="40" as="alternateBounds" />
          </mxGeometry>
        </mxCell>
        <mxCell id="EGeZLPn4iddL7TTvWUzM-46" value="" style="shape=table;startSize=0;container=1;collapsible=0;childLayout=tableLayout;fontSize=16;" vertex="1" parent="1">
          <mxGeometry x="400" y="370" width="208" height="160" as="geometry" />
        </mxCell>
        <mxCell id="EGeZLPn4iddL7TTvWUzM-47" value="" style="shape=tableRow;horizontal=0;startSize=0;swimlaneHead=0;swimlaneBody=0;strokeColor=inherit;top=0;left=0;bottom=0;right=0;collapsible=0;dropTarget=0;fillColor=none;points=[[0,0.5],[1,0.5]];portConstraint=eastwest;" vertex="1" parent="EGeZLPn4iddL7TTvWUzM-46">
          <mxGeometry width="208" height="40" as="geometry" />
        </mxCell>
        <mxCell id="EGeZLPn4iddL7TTvWUzM-48" value="&lt;font style=&quot;font-size: 16px;&quot;&gt;&quot;ImePlaceholder&quot;&lt;/font&gt;" style="shape=partialRectangle;html=1;whiteSpace=wrap;connectable=0;strokeColor=inherit;overflow=hidden;fillColor=none;top=0;left=0;bottom=0;right=0;pointerEvents=1;fontFamily=Comic Sans MS;" vertex="1" parent="EGeZLPn4iddL7TTvWUzM-47">
          <mxGeometry width="208" height="40" as="geometry">
            <mxRectangle width="208" height="40" as="alternateBounds" />
          </mxGeometry>
        </mxCell>
        <mxCell id="EGeZLPn4iddL7TTvWUzM-49" value="" style="shape=tableRow;horizontal=0;startSize=0;swimlaneHead=0;swimlaneBody=0;strokeColor=inherit;top=0;left=0;bottom=0;right=0;collapsible=0;dropTarget=0;fillColor=none;points=[[0,0.5],[1,0.5]];portConstraint=eastwest;" vertex="1" parent="EGeZLPn4iddL7TTvWUzM-46">
          <mxGeometry y="40" width="208" height="40" as="geometry" />
        </mxCell>
        <mxCell id="EGeZLPn4iddL7TTvWUzM-50" value="&lt;font style=&quot;font-size: 16px;&quot;&gt;7&lt;/font&gt;" style="shape=partialRectangle;html=1;whiteSpace=wrap;connectable=0;strokeColor=inherit;overflow=hidden;fillColor=none;top=0;left=0;bottom=0;right=0;pointerEvents=1;fontFamily=Comic Sans MS;" vertex="1" parent="EGeZLPn4iddL7TTvWUzM-49">
          <mxGeometry width="208" height="40" as="geometry">
            <mxRectangle width="208" height="40" as="alternateBounds" />
          </mxGeometry>
        </mxCell>
        <mxCell id="EGeZLPn4iddL7TTvWUzM-51" value="" style="shape=tableRow;horizontal=0;startSize=0;swimlaneHead=0;swimlaneBody=0;strokeColor=inherit;top=0;left=0;bottom=0;right=0;collapsible=0;dropTarget=0;fillColor=none;points=[[0,0.5],[1,0.5]];portConstraint=eastwest;" vertex="1" parent="EGeZLPn4iddL7TTvWUzM-46">
          <mxGeometry y="80" width="208" height="40" as="geometry" />
        </mxCell>
        <mxCell id="EGeZLPn4iddL7TTvWUzM-52" value="&lt;span style=&quot;font-size: 16px;&quot;&gt;13,14为true&lt;/span&gt;" style="shape=partialRectangle;html=1;whiteSpace=wrap;connectable=0;strokeColor=inherit;overflow=hidden;fillColor=none;top=0;left=0;bottom=0;right=0;pointerEvents=1;fontFamily=Comic Sans MS;" vertex="1" parent="EGeZLPn4iddL7TTvWUzM-51">
          <mxGeometry width="208" height="40" as="geometry">
            <mxRectangle width="208" height="40" as="alternateBounds" />
          </mxGeometry>
        </mxCell>
        <mxCell id="EGeZLPn4iddL7TTvWUzM-53" value="" style="shape=tableRow;horizontal=0;startSize=0;swimlaneHead=0;swimlaneBody=0;strokeColor=inherit;top=0;left=0;bottom=0;right=0;collapsible=0;dropTarget=0;fillColor=none;points=[[0,0.5],[1,0.5]];portConstraint=eastwest;" vertex="1" parent="EGeZLPn4iddL7TTvWUzM-46">
          <mxGeometry y="120" width="208" height="40" as="geometry" />
        </mxCell>
        <mxCell id="EGeZLPn4iddL7TTvWUzM-54" value="&lt;font face=&quot;Comic Sans MS&quot; style=&quot;font-size: 16px;&quot;&gt;DisplayArea::new&lt;/font&gt;" style="shape=partialRectangle;html=1;whiteSpace=wrap;connectable=0;strokeColor=inherit;overflow=hidden;fillColor=none;top=0;left=0;bottom=0;right=0;pointerEvents=1;" vertex="1" parent="EGeZLPn4iddL7TTvWUzM-53">
          <mxGeometry width="208" height="40" as="geometry">
            <mxRectangle width="208" height="40" as="alternateBounds" />
          </mxGeometry>
        </mxCell>
      </root>
    </mxGraphModel>
  </diagram>
</mxfile>
